<svg width="120" height="120" viewBox="0 0 120 120" fill="none" xmlns="http://www.w3.org/2000/svg">
<path d="M59.7397 0C92.733 0 119.479 26.7463 119.479 59.7397C119.479 92.733 92.733 119.479 59.7397 119.479C26.7463 119.479 0 92.733 0 59.7397C0 26.7463 26.7463 0 59.7397 0ZM59.7397 109.09C86.995 109.09 109.09 86.995 109.09 59.7396C109.09 32.4841 86.9951 10.3895 59.7397 10.3895C32.4844 10.3895 10.3895 32.4843 10.3895 59.7397C10.4219 86.9819 32.4973 109.057 59.7365 109.09H59.7396L59.7397 109.09ZM79.7914 84.5185H69.4019V34.9609H79.7914V84.5185ZM50.0775 84.5185H39.688V34.9609H50.0775V84.5185Z" fill="black"/>
</svg>
