<svg width="120" height="100" viewBox="0 0 120 100" fill="none" xmlns="http://www.w3.org/2000/svg">
<path d="M83.3757 62.9589L77.7304 57.3771C79.6995 55.3619 80.9145 52.6024 80.9145 49.559C80.9145 46.5155 79.6995 43.756 77.7283 41.7388L77.7303 41.7408L83.4023 36.154C86.7987 39.6001 88.8962 44.3346 88.8962 49.559C88.8962 54.7833 86.7987 59.518 83.3999 62.9664L83.4023 62.964L83.3757 62.9589ZM94.3375 74.1278L88.7134 68.4929C93.5002 63.7185 96.4618 57.1159 96.4618 49.8217C96.4618 42.5276 93.5003 35.9249 88.714 31.1512L88.7132 31.1506L94.3374 25.5158C100.569 31.7313 104.424 40.3263 104.424 49.8219C104.424 59.3174 100.569 67.9124 94.3381 74.1271L94.3375 74.1278ZM104.944 84.5748L99.3247 78.94C106.863 71.4266 111.527 61.0336 111.527 49.5511C111.527 38.0686 106.863 27.6756 99.3259 20.1632L99.3247 20.162L104.944 14.538C113.923 23.4919 119.479 35.8753 119.479 49.5563C119.479 63.2374 113.923 75.6208 104.945 84.5735L104.944 84.5748ZM0 25.3088H33.2673V73.8041H0V25.3088ZM25.3089 33.2676H7.95866V65.8452H25.3089V33.2676ZM59.5684 0H73.8039V99.1126H59.5685L25.3089 71.74V27.3729L59.5684 0ZM65.8452 7.95878H62.3433L33.2676 31.2036V67.9091L62.3436 91.1539H65.8294L65.8452 7.95878Z" fill="black"/>
</svg>
