<svg width="45" height="38" viewBox="0 0 45 38" fill="none" xmlns="http://www.w3.org/2000/svg">
<path d="M32.0528 4.48867e-05H32.0778C35.6442 4.48867e-05 38.8713 1.45257 41.1999 3.79838L41.2007 3.79914C43.5427 6.149 44.9929 9.38895 44.9997 12.9677V12.969C44.9999 12.9985 45 13.0334 45 13.0683C45 17.3793 43.6794 21.382 41.4207 24.6937L41.4666 24.6223C39.4022 27.5951 36.8693 30.081 33.9482 32.0307L33.8464 32.0946C30.6998 34.2495 27.0657 36.0215 23.1811 37.2232L22.8949 37.2994L22.495 37.4074L22.0951 37.2994C17.9256 36.0179 14.2931 34.2427 11.0094 31.9952L11.1477 32.0846C8.12469 30.0709 5.59183 27.5852 3.58775 24.704L3.52748 24.6123C1.31828 21.3734 0 17.3736 0 13.0658C0 13.0275 8.98228e-05 12.9893 0.00031438 12.9511V12.9569C0.0331895 5.826 5.82155 0.0579357 12.9571 0.0579357C16.7261 0.0579357 20.1191 1.6672 22.4869 4.23604L22.4949 4.24503C24.8585 1.64331 28.251 0.0127997 32.0245 0H32.0267L32.0528 4.48867e-05ZM22.4951 34.286C26.2 33.0734 29.4188 31.4698 32.3484 29.4733L32.2148 29.5592C38.7014 25.1163 41.9906 19.5296 41.9906 12.9631C41.9889 10.213 40.877 7.72287 39.0789 5.91645L39.0792 5.91681C37.2903 4.11487 34.8119 2.99945 32.0731 2.99945H32.0349C28.5812 3.00996 25.5436 4.78172 23.7719 7.46333L23.7488 7.50047L22.4951 9.40004L21.2374 7.50847C19.4256 4.82375 16.3948 3.08173 12.9571 3.08173C7.48305 3.08173 3.04068 7.49877 2.99972 12.9632V12.9671C2.99972 19.5316 6.28894 25.1183 12.7754 29.5632C15.5715 31.4724 18.7904 33.0747 22.2226 34.2081L22.4952 34.2861L22.4951 34.286ZM32.9846 22.9027L30.9211 20.7252C32.9846 18.7573 34.2873 16.0074 34.3521 12.9528L34.3523 12.941V12.937C34.3523 11.6671 33.3229 10.6375 32.0529 10.6375C32.0487 10.6375 32.0445 10.6375 32.0403 10.6376H32.0409L32.0249 7.63831C32.0332 7.63822 32.0431 7.63817 32.0529 7.63817C34.9794 7.63817 37.3517 10.0105 37.3517 12.937C37.3517 12.9468 37.3517 12.9567 37.3516 12.9666V12.965V12.983C37.2725 16.8903 35.6138 20.3953 32.9903 22.8974L32.9847 22.9028L32.9846 22.9027Z" fill="white"/>
</svg>
