<svg width="42" height="42" viewBox="0 0 42 42" fill="none" xmlns="http://www.w3.org/2000/svg">
<path d="M15.9809 4.09931e-05C24.807 4.09931e-05 31.9619 7.15497 31.9619 15.981C31.9619 24.8069 24.807 31.962 15.981 31.962C7.15489 31.962 0 24.807 0 15.981C0.0105 7.15919 7.15915 0.0105 15.98 0H15.981L15.9809 4.09931e-05ZM15.9809 28.2627C22.764 28.2627 28.2626 22.764 28.2626 15.981C28.2626 9.19792 22.764 3.69936 15.9809 3.69936C9.19796 3.69936 3.69928 9.19804 3.69928 15.9811C3.70769 22.7606 9.20136 28.2543 15.9802 28.2627H15.981L15.9809 28.2627ZM39.3791 42L24.384 26.9994L26.9994 24.384L42 39.3791L39.3791 42Z" fill="white"/>
</svg>
