<svg width="36" height="43" viewBox="0 0 36 43" fill="none" xmlns="http://www.w3.org/2000/svg">
<path d="M5.34885 0H29.9054C32.8581 0.00313764 35.2509 2.396 35.2541 5.34843V36.9267C35.251 39.8795 32.8581 42.2724 29.9057 42.2755H5.34872C2.39608 42.2723 0.00322021 39.8795 0 36.927V5.34872C0.00313764 2.39604 2.396 0.0031789 5.34843 4.1262e-05H5.34876L5.34885 0ZM29.9054 38.5994C30.8288 38.5984 31.577 37.8501 31.5781 36.9269V5.34885C31.577 4.42547 30.8287 3.67723 29.9055 3.6762H5.34885C4.42547 3.67723 3.67723 4.42551 3.6762 5.34872V36.9268C3.67723 37.8502 4.42551 38.5984 5.34872 38.5994H5.34881H29.9054ZM17.6271 7.02141C23.4844 7.02141 28.2327 11.7697 28.2327 17.627C28.2327 23.4844 23.4844 28.2327 17.6271 28.2327C11.7697 28.2327 7.02146 23.4844 7.02146 17.627C7.02876 11.7727 11.7727 7.02872 17.6264 7.02141H17.6271ZM17.6271 24.5566C21.4542 24.5566 24.5566 21.4541 24.5566 17.627C24.5566 13.8 21.4542 10.6976 17.6271 10.6976C13.8 10.6976 10.6976 13.8 10.6976 17.627C10.7017 21.4525 13.8017 24.5524 17.6267 24.5566H17.6271H17.6271ZM24.2313 26.8303L18.9561 21.555L21.5551 18.956L26.8304 24.2312L24.2313 26.8303ZM19.3733 17.6271C19.3733 18.5914 18.5915 19.3732 17.6271 19.3732C16.6627 19.3732 15.8809 18.5915 15.8809 17.627C15.8809 16.6626 16.6627 15.8809 17.6271 15.8809C18.5915 15.8809 19.3733 16.6626 19.3733 17.627L19.3733 17.6271ZM26.3947 35.2541H8.85953V31.578H26.3947V35.2541Z" fill="white"/>
</svg>
