<svg width="42" height="42" viewBox="0 0 42 42" fill="none" xmlns="http://www.w3.org/2000/svg">
<path d="M21 0C32.598 0 42 9.40201 42 21C42 32.598 32.598 42 21 42C9.40201 42 0 32.598 0 21C0 9.40201 9.40201 0 21 0ZM21 38.3478C30.5809 38.3478 38.3478 30.581 38.3478 21C38.3478 11.419 30.581 3.65215 21 3.65215C11.4191 3.65215 3.65215 11.419 3.65215 21C3.66356 30.5763 11.4236 38.3364 20.9989 38.3478H21L21 38.3478ZM31.4635 22.8261H10.5365V19.1739H31.4635V22.8261ZM22.8261 31.4635H19.174V10.5365H22.8261V31.4635Z" fill="white"/>
</svg>
