<svg width="54" height="61" viewBox="0 0 54 61" fill="none" xmlns="http://www.w3.org/2000/svg">
<path d="M10.8956 60.7353C4.89879 60.7353 0 55.8365 0 49.8397C0 43.8429 4.89879 38.9441 10.8956 38.9441C16.8924 38.9441 21.7913 43.8429 21.7913 49.8397C21.7913 55.8365 16.8924 60.7353 10.8956 60.7353ZM10.8956 43.1672C7.20742 43.1672 4.2231 46.1516 4.2231 49.8397C4.2231 53.5279 7.20742 56.5122 10.8956 56.5122C14.5838 56.5122 17.5681 53.5279 17.5681 49.8397C17.5681 46.1516 14.5838 43.1672 10.8956 43.1672Z" fill="white"/>
<path d="M19.6803 51.9521C18.526 51.9521 17.5687 50.9949 17.5687 49.8406V14.423C17.5687 9.97463 20.2433 6.48354 24.5228 5.32923L42.0909 0.543049C45.6664 -0.44234 48.6789 -0.076338 50.7904 1.55659C52.9301 3.18952 54 5.92046 54 9.66494V44.0127C54 45.167 53.0428 46.1242 51.8884 46.1242C50.7341 46.1242 49.7769 45.167 49.7769 44.0127V9.63678C49.7769 8.00385 49.4954 5.86415 48.2284 4.90692C46.8489 3.83706 44.4839 4.25937 43.1889 4.62538L25.6208 9.41155C23.1714 10.0872 21.7918 11.9173 21.7918 14.4511V49.8687C21.7918 50.9949 20.8346 51.9521 19.6803 51.9521Z" fill="white"/>
<path d="M43.1021 54.8804C37.1054 54.8804 32.2066 49.9816 32.2066 43.9848C32.2066 37.988 37.1054 33.0892 43.1021 33.0892C49.0989 33.0892 53.9977 37.988 53.9977 43.9848C53.9977 49.9816 49.0989 54.8804 43.1021 54.8804ZM43.1021 37.3123C39.414 37.3123 36.4297 40.2967 36.4297 43.9848C36.4297 47.673 39.414 50.6573 43.1021 50.6573C46.7903 50.6573 49.7746 47.673 49.7746 43.9848C49.7746 40.2967 46.7903 37.3123 43.1021 37.3123Z" fill="white"/>
<path d="M19.6786 25.5992C18.7495 25.5992 17.9049 24.9798 17.6515 24.0506C17.3418 22.9245 17.9894 21.742 19.1155 21.4323L51.3237 12.6483C52.4498 12.3386 53.6041 13.0143 53.9138 14.1404C54.2235 15.2666 53.5478 16.4209 52.4217 16.7306L20.2417 25.5147C20.0446 25.571 19.8475 25.5992 19.6786 25.5992Z" fill="white"/>
</svg>
